# xmcd
#
# Track frame offsets:
#	150
#	15969
#	29367
#	41918
#	56897
#	75391
#	91930
#	100922
#	110716
#	130938
#	148440
#	161245
#	174974
#	196446
#
# Disc length: 2881
#
# Revision: 1
# Processed by: cddbd v1.5.1PL0 Copyright (c) Steve Scherf et al.
# Submitted via: CD-DA_X-Tractor v0.21
# Normalized: r0:TDELIM( - )
#
DISCID=c00b3f0e
DTITLE=Various Artist - Genuinamente Brasil
DYEAR=1900
DGENRE=
TTITLE0=Gal Costa - Aquarela do Brasil
TTITLE1=Maria Bethania - Grito de Alerta
TTITLE2=Emilio Santiago - As Rosas Nao Falam
TTITLE3=Joao Bosco - Papel Marche
TTITLE4=MPB-4 - Amigo E pra Essas Coisas
TTITLE5=Zizi Possi - A Paz
TTITLE6=Vinicius de Moraes - Pela Luz dos Olhos Teus
TTITLE7=Ivan Lins - Madalena
TTITLE8=Gilberto Gil - Preciso Aprender a So Ser
TTITLE9=Milton Nascimento - Cancao da America
TTITLE10=Luiz Melodia - Perola Negra
TTITLE11=Toquinho e Vinicius - Meu Pranto Rolou
TTITLE12=Leila Pinheiro - Gostava Tanto de Voce
TTITLE13=Elis Regina - Dois pra La, Dois pra Ca
EXTD=
EXTT0=
EXTT1=
EXTT2=
EXTT3=
EXTT4=
EXTT5=
EXTT6=
EXTT7=
EXTT8=
EXTT9=
EXTT10=
EXTT11=
EXTT12=
EXTT13=
PLAYORDER=
